<svg xmlns="http://www.w3.org/2000/svg" xmlns:xlink="http://www.w3.org/1999/xlink" contentStyleType="text/css" data-diagram-type="CLASS" height="757px" preserveAspectRatio="none" style="width:1794px;height:757px;background:#FFFFFF;" version="1.1" viewBox="0 0 1794 757" width="1794px" zoomAndPan="magnify"><?plantuml 1.2026.6?><defs/><g><rect fill="#FFFFCC" height="16.6406" rx="2.5" ry="2.5" style="stroke:#FFDD88;stroke-width:3;" width="1778.3741" x="3" y="3"/><text fill="#000000" font-family="monospace" font-size="10" lengthAdjust="spacing" textLength="295.0049" x="10" y="13.6406">Please&#160;use&#160;CSS&#160;style&#160;instead&#160;of&#160;skinparam&#160;padding</text><!--class DatabaseBenchmark--><g class="entity" data-qualified-name="DatabaseBenchmark" data-source-line="8" id="ent0001"><rect fill="#F1F1F1" height="135.4648" rx="2.5" ry="2.5" style="stroke:#181818;stroke-width:0.5;" width="456.1973" x="521.05" y="30.2906"/><ellipse cx="666.0095" cy="53.5348" fill="#ADD1B2" rx="11" ry="11" style="stroke:#181818;stroke-width:1;"/><path d="M668.4826,59.6778 Q667.9016,59.9767 667.2624,60.1261 Q666.6232,60.2755 665.9177,60.2755 Q663.4108,60.2755 662.091,58.6236 Q660.7712,56.9718 660.7712,53.8507 Q660.7712,50.7213 662.091,49.0694 Q663.4108,47.4176 665.9177,47.4176 Q666.6232,47.4176 667.2707,47.567 Q667.9182,47.7164 668.4826,48.0152 L668.4826,50.7379 Q667.8518,50.1568 667.2583,49.8871 Q666.6647,49.6173 666.0339,49.6173 Q664.6892,49.6173 664.0043,50.6839 Q663.3195,51.7506 663.3195,53.8507 Q663.3195,55.9425 664.0043,57.0091 Q664.6892,58.0758 666.0339,58.0758 Q666.6647,58.0758 667.2583,57.806 Q667.8518,57.5362 668.4826,56.9552 Z " fill="#000000"/><text fill="#000000" font-family="sans-serif" font-size="14" lengthAdjust="spacing" textLength="137.7783" x="696.5095" y="58.8258">DatabaseBenchmark</text><line style="stroke:#181818;stroke-width:0.5;" x1="522.05" x2="976.2473" y1="76.7789" y2="76.7789"/><line style="stroke:#181818;stroke-width:0.5;" x1="522.05" x2="976.2473" y1="84.7789" y2="84.7789"/><g data-visibility-modifier="PUBLIC_METHOD"><ellipse cx="532.05" cy="108.523" fill="#84BE84" rx="3" ry="3" style="stroke:#038048;stroke-width:1;"/></g><text fill="#000000" font-family="sans-serif" font-size="14" lengthAdjust="spacing" text-decoration="underline" textLength="167.4668" x="551.05" y="112.3141">main(String[] args) : void</text><g data-visibility-modifier="PRIVATE_METHOD"><rect fill="#F24D5C" height="6" style="stroke:#C82930;stroke-width:1;" width="6" x="529.05" y="142.0113"/></g><text fill="#000000" font-family="sans-serif" font-size="14" lengthAdjust="spacing" text-decoration="underline" textLength="410.1973" x="551.05" y="148.8023">runBenchmark(BenchmarkMode mode, CsvLogger log) : void</text></g><!--class BenchmarkMode--><g class="entity" data-qualified-name="BenchmarkMode" data-source-line="13" id="ent0002"><rect fill="#F1F1F1" height="208.4414" rx="2.5" ry="2.5" style="stroke:#181818;stroke-width:0.5;" width="202.3037" x="7" y="245.7606"/><ellipse cx="39.0644" cy="269.0048" fill="#EB937F" rx="11" ry="11" style="stroke:#181818;stroke-width:1;"/><path d="M42.6787,275.5048 L34.9589,275.5048 L34.9589,263.1117 L42.6787,263.1117 L42.6787,265.2699 L37.4077,265.2699 L37.4077,267.9428 L42.1806,267.9428 L42.1806,270.101 L37.4077,270.101 L37.4077,273.3466 L42.6787,273.3466 Z " fill="#000000"/><text fill="#000000" font-family="sans-serif" font-size="14" lengthAdjust="spacing" textLength="112.3828" x="66.8565" y="274.2958">BenchmarkMode</text><line style="stroke:#181818;stroke-width:0.5;" x1="8" x2="208.3037" y1="292.2489" y2="292.2489"/><text fill="#000000" font-family="sans-serif" font-size="14" lengthAdjust="spacing" textLength="122.3906" x="23" y="319.7841">HSQLDB_OPTIMAL</text><text fill="#000000" font-family="sans-serif" font-size="14" lengthAdjust="spacing" textLength="137.5664" x="23" y="356.2723">HSQLDB_EQUALIZED</text><text fill="#000000" font-family="sans-serif" font-size="14" lengthAdjust="spacing" textLength="155.1279" x="23" y="392.7606">POSTGRESQL_OPTIMAL</text><text fill="#000000" font-family="sans-serif" font-size="14" lengthAdjust="spacing" textLength="170.3037" x="23" y="429.2489">POSTGRESQL_EQUALIZED</text><line style="stroke:#181818;stroke-width:0.5;" x1="8" x2="208.3037" y1="446.202" y2="446.202"/></g><!--class Db--><g class="entity" data-qualified-name="Db" data-source-line="20" id="ent0003"><rect fill="#F1F1F1" height="208.4414" rx="2.5" ry="2.5" style="stroke:#181818;stroke-width:0.5;" width="194.3398" x="911.98" y="534.2006"/><ellipse cx="985.251" cy="557.4448" fill="#ADD1B2" rx="11" ry="11" style="stroke:#181818;stroke-width:1;"/><path d="M987.7241,563.5878 Q987.1431,563.8867 986.5039,564.0361 Q985.8648,564.1855 985.1592,564.1855 Q982.6524,564.1855 981.3325,562.5336 Q980.0127,560.8818 980.0127,557.7607 Q980.0127,554.6313 981.3325,552.9794 Q982.6524,551.3276 985.1592,551.3276 Q985.8648,551.3276 986.5122,551.477 Q987.1597,551.6264 987.7241,551.9252 L987.7241,554.6479 Q987.0933,554.0668 986.4998,553.7971 Q985.9063,553.5273 985.2754,553.5273 Q983.9307,553.5273 983.2459,554.5939 Q982.5611,555.6606 982.5611,557.7607 Q982.5611,559.8525 983.2459,560.9191 Q983.9307,561.9858 985.2754,561.9858 Q985.9063,561.9858 986.4998,561.716 Q987.0933,561.4462 987.7241,560.8652 Z " fill="#000000"/><text fill="#000000" font-family="sans-serif" font-size="14" lengthAdjust="spacing" textLength="19.2979" x="1015.751" y="562.7358">Db</text><line style="stroke:#181818;stroke-width:0.5;" x1="912.98" x2="1105.3198" y1="580.6889" y2="580.6889"/><g data-visibility-modifier="PUBLIC_FIELD"><ellipse cx="922.98" cy="604.433" fill="none" rx="3" ry="3" style="stroke:#038048;stroke-width:1;"/></g><text fill="#000000" font-family="sans-serif" font-size="14" lengthAdjust="spacing" textLength="83.7607" x="941.98" y="608.2241">String driver</text><g data-visibility-modifier="PUBLIC_FIELD"><ellipse cx="922.98" cy="640.9213" fill="none" rx="3" ry="3" style="stroke:#038048;stroke-width:1;"/></g><text fill="#000000" font-family="sans-serif" font-size="14" lengthAdjust="spacing" textLength="62.8633" x="941.98" y="644.7123">String url</text><line style="stroke:#181818;stroke-width:0.5;" x1="912.98" x2="1105.3198" y1="661.6655" y2="661.6655"/><g data-visibility-modifier="PUBLIC_METHOD"><ellipse cx="922.98" cy="685.4096" fill="#84BE84" rx="3" ry="3" style="stroke:#038048;stroke-width:1;"/></g><text fill="#000000" font-family="sans-serif" font-size="14" lengthAdjust="spacing" textLength="148.3398" x="941.98" y="689.2006">getCon() : Connection</text><g data-visibility-modifier="PUBLIC_METHOD"><ellipse cx="922.98" cy="721.8979" fill="#84BE84" rx="3" ry="3" style="stroke:#038048;stroke-width:1;"/></g><text fill="#000000" font-family="sans-serif" font-size="14" lengthAdjust="spacing" textLength="85.8525" x="941.98" y="725.6889">close() : void</text></g><!--class InsertBenchmark--><g class="entity" data-qualified-name="InsertBenchmark" data-source-line="27" id="ent0004"><rect fill="#F1F1F1" height="135.4648" rx="2.5" ry="2.5" style="stroke:#181818;stroke-width:0.5;" width="595.165" x="451.57" y="282.2506"/><ellipse cx="678.0344" cy="305.4948" fill="#ADD1B2" rx="11" ry="11" style="stroke:#181818;stroke-width:1;"/><path d="M680.5075,311.6378 Q679.9264,311.9367 679.2873,312.0861 Q678.6481,312.2355 677.9426,312.2355 Q675.4357,312.2355 674.1159,310.5836 Q672.7961,308.9318 672.7961,305.8107 Q672.7961,302.6813 674.1159,301.0294 Q675.4357,299.3776 677.9426,299.3776 Q678.6481,299.3776 679.2956,299.527 Q679.943,299.6764 680.5075,299.9752 L680.5075,302.6979 Q679.8766,302.1168 679.2831,301.8471 Q678.6896,301.5773 678.0588,301.5773 Q676.714,301.5773 676.0292,302.6439 Q675.3444,303.7106 675.3444,305.8107 Q675.3444,307.9025 676.0292,308.9691 Q676.714,310.0358 678.0588,310.0358 Q678.6896,310.0358 679.2831,309.766 Q679.8766,309.4962 680.5075,308.9152 Z " fill="#000000"/><text fill="#000000" font-family="sans-serif" font-size="14" lengthAdjust="spacing" textLength="113.7363" x="708.5344" y="310.7858">InsertBenchmark</text><line style="stroke:#181818;stroke-width:0.5;" x1="452.57" x2="1045.735" y1="328.7389" y2="328.7389"/><line style="stroke:#181818;stroke-width:0.5;" x1="452.57" x2="1045.735" y1="336.7389" y2="336.7389"/><g data-visibility-modifier="PUBLIC_METHOD"><ellipse cx="462.57" cy="360.483" fill="#84BE84" rx="3" ry="3" style="stroke:#038048;stroke-width:1;"/></g><text fill="#000000" font-family="sans-serif" font-size="14" lengthAdjust="spacing" text-decoration="underline" textLength="456.8252" x="481.57" y="364.2741">runSingle(Db db, int customers, int products, CsvLogger log) : long</text><g data-visibility-modifier="PUBLIC_METHOD"><ellipse cx="462.57" cy="396.9713" fill="#84BE84" rx="3" ry="3" style="stroke:#038048;stroke-width:1;"/></g><text fill="#000000" font-family="sans-serif" font-size="14" lengthAdjust="spacing" text-decoration="underline" textLength="549.165" x="481.57" y="400.7623">runBatch(Db db, int customers, int products, int batchSize, CsvLogger log) : long</text></g><!--class SelectBenchmark--><g class="entity" data-qualified-name="SelectBenchmark" data-source-line="32" id="ent0005"><rect fill="#F1F1F1" height="98.9766" rx="2.5" ry="2.5" style="stroke:#181818;stroke-width:0.5;" width="286.4541" x="1126.92" y="300.4906"/><ellipse cx="1198.5435" cy="323.7348" fill="#ADD1B2" rx="11" ry="11" style="stroke:#181818;stroke-width:1;"/><path d="M1201.0167,329.8778 Q1200.4356,330.1767 1199.7965,330.3261 Q1199.1573,330.4755 1198.4517,330.4755 Q1195.9449,330.4755 1194.6251,328.8236 Q1193.3053,327.1718 1193.3053,324.0507 Q1193.3053,320.9213 1194.6251,319.2694 Q1195.9449,317.6176 1198.4517,317.6176 Q1199.1573,317.6176 1199.8048,317.767 Q1200.4522,317.9164 1201.0167,318.2152 L1201.0167,320.9379 Q1200.3858,320.3568 1199.7923,320.0871 Q1199.1988,319.8173 1198.5679,319.8173 Q1197.2232,319.8173 1196.5384,320.8839 Q1195.8536,321.9506 1195.8536,324.0507 Q1195.8536,326.1425 1196.5384,327.2091 Q1197.2232,328.2758 1198.5679,328.2758 Q1199.1988,328.2758 1199.7923,328.006 Q1200.3858,327.7362 1201.0167,327.1552 Z " fill="#000000"/><text fill="#000000" font-family="sans-serif" font-size="14" lengthAdjust="spacing" textLength="114.707" x="1229.0435" y="329.0258">SelectBenchmark</text><line style="stroke:#181818;stroke-width:0.5;" x1="1127.92" x2="1412.3741" y1="346.9789" y2="346.9789"/><line style="stroke:#181818;stroke-width:0.5;" x1="1127.92" x2="1412.3741" y1="354.9789" y2="354.9789"/><g data-visibility-modifier="PUBLIC_METHOD"><ellipse cx="1137.92" cy="378.723" fill="#84BE84" rx="3" ry="3" style="stroke:#038048;stroke-width:1;"/></g><text fill="#000000" font-family="sans-serif" font-size="14" lengthAdjust="spacing" text-decoration="underline" textLength="240.4541" x="1156.92" y="382.5141">runAll(Db db, CsvLogger log) : long</text></g><!--class DenormBenchmark--><g class="entity" data-qualified-name="DenormBenchmark" data-source-line="36" id="ent0006"><rect fill="#F1F1F1" height="135.4648" rx="2.5" ry="2.5" style="stroke:#181818;stroke-width:0.5;" width="286.4541" x="1492.92" y="282.2506"/><ellipse cx="1557.1539" cy="305.4948" fill="#ADD1B2" rx="11" ry="11" style="stroke:#181818;stroke-width:1;"/><path d="M1559.627,311.6378 Q1559.046,311.9367 1558.4068,312.0861 Q1557.7677,312.2355 1557.0621,312.2355 Q1554.5553,312.2355 1553.2354,310.5836 Q1551.9156,308.9318 1551.9156,305.8107 Q1551.9156,302.6813 1553.2354,301.0294 Q1554.5553,299.3776 1557.0621,299.3776 Q1557.7677,299.3776 1558.4151,299.527 Q1559.0626,299.6764 1559.627,299.9752 L1559.627,302.6979 Q1558.9962,302.1168 1558.4027,301.8471 Q1557.8092,301.5773 1557.1783,301.5773 Q1555.8336,301.5773 1555.1488,302.6439 Q1554.4639,303.7106 1554.4639,305.8107 Q1554.4639,307.9025 1555.1488,308.9691 Q1555.8336,310.0358 1557.1783,310.0358 Q1557.8092,310.0358 1558.4027,309.766 Q1558.9962,309.4962 1559.627,308.9152 Z " fill="#000000"/><text fill="#000000" font-family="sans-serif" font-size="14" lengthAdjust="spacing" textLength="129.4863" x="1587.6539" y="310.7858">DenormBenchmark</text><line style="stroke:#181818;stroke-width:0.5;" x1="1493.92" x2="1778.3741" y1="328.7389" y2="328.7389"/><line style="stroke:#181818;stroke-width:0.5;" x1="1493.92" x2="1778.3741" y1="336.7389" y2="336.7389"/><g data-visibility-modifier="PUBLIC_METHOD"><ellipse cx="1503.92" cy="360.483" fill="#84BE84" rx="3" ry="3" style="stroke:#038048;stroke-width:1;"/></g><text fill="#000000" font-family="sans-serif" font-size="14" lengthAdjust="spacing" text-decoration="underline" textLength="152.1748" x="1522.92" y="364.2741">populate(Db db) : void</text><g data-visibility-modifier="PUBLIC_METHOD"><ellipse cx="1503.92" cy="396.9713" fill="#84BE84" rx="3" ry="3" style="stroke:#038048;stroke-width:1;"/></g><text fill="#000000" font-family="sans-serif" font-size="14" lengthAdjust="spacing" text-decoration="underline" textLength="240.4541" x="1522.92" y="400.7623">runAll(Db db, CsvLogger log) : long</text></g><!--reverse link DatabaseBenchmark to BenchmarkMode--><g class="link" data-entity-1="ent0001" data-entity-2="ent0002" data-link-type="composition" data-source-line="41" id="lnk7"><path codeLine="41" d="M508.9,97.6406 C324.74,97.6406 108.15,97.6406 108.15,97.6406 C108.15,97.6406 108.15,176.1006 108.15,245.5206" fill="none" id="DatabaseBenchmark-backto-BenchmarkMode" style="stroke:#181818;stroke-width:1.5;"/><polygon fill="#181818" points="520.9,97.6406,514.9,93.6406,508.9,97.6406,514.9,101.6406,520.9,97.6406" style="stroke:#181818;stroke-width:1.5;stroke-linejoin:miter;stroke-miterlimit:10;"/></g><!--link DatabaseBenchmark to Db--><g class="link" data-entity-1="ent0001" data-entity-2="ent0003" data-link-type="dependency" data-source-line="43" id="lnk8"><path codeLine="43" d="M977.48,131.6406 C1025.33,131.6406 1061.63,131.6406 1061.63,131.6406 C1061.63,131.6406 1061.63,380.3306 1061.63,528.7206" fill="none" id="DatabaseBenchmark-to-Db" style="stroke:#181818;stroke-width:1.5;stroke-dasharray:7,7;"/><polygon fill="#181818" points="1061.63,533.7206,1065.63,524.7206,1061.63,528.7206,1057.63,524.7206,1061.63,533.7206" style="stroke:#181818;stroke-width:1.5;stroke-linejoin:miter;stroke-miterlimit:10;"/><text fill="#000000" font-family="sans-serif" font-size="13" lengthAdjust="spacing" textLength="45.1318" x="1072.63" y="277.179">creates</text></g><!--link DatabaseBenchmark to InsertBenchmark--><g class="link" data-entity-1="ent0001" data-entity-2="ent0004" data-link-type="dependency" data-source-line="44" id="lnk9"><path codeLine="44" d="M749.15,166.2106 C749.15,202.2006 749.15,241.2406 749.15,277.1806" fill="none" id="DatabaseBenchmark-to-InsertBenchmark" style="stroke:#181818;stroke-width:1.5;stroke-dasharray:7,7;"/><polygon fill="#181818" points="749.15,282.1806,753.15,273.1806,749.15,277.1806,745.15,273.1806,749.15,282.1806" style="stroke:#181818;stroke-width:1.5;stroke-linejoin:miter;stroke-miterlimit:10;"/><text fill="#000000" font-family="sans-serif" font-size="13" lengthAdjust="spacing" textLength="28.5645" x="710.15" y="210.759">uses</text></g><!--link DatabaseBenchmark to SelectBenchmark--><g class="link" data-entity-1="ent0001" data-entity-2="ent0005" data-link-type="dependency" data-source-line="45" id="lnk10"><path codeLine="45" d="M977.67,97.6406 C1117.66,97.6406 1270.15,97.6406 1270.15,97.6406 C1270.15,97.6406 1270.15,221.5906 1270.15,295.1206" fill="none" id="DatabaseBenchmark-to-SelectBenchmark" style="stroke:#181818;stroke-width:1.5;stroke-dasharray:7,7;"/><polygon fill="#181818" points="1270.15,300.1206,1274.15,291.1206,1270.15,295.1206,1266.15,291.1206,1270.15,300.1206" style="stroke:#181818;stroke-width:1.5;stroke-linejoin:miter;stroke-miterlimit:10;"/><text fill="#000000" font-family="sans-serif" font-size="13" lengthAdjust="spacing" textLength="28.5645" x="1186.15" y="84.209">uses</text></g><!--link DatabaseBenchmark to DenormBenchmark--><g class="link" data-entity-1="ent0001" data-entity-2="ent0006" data-link-type="dependency" data-source-line="46" id="lnk11"><path codeLine="46" d="M977.58,64.6406 C1240.39,64.6406 1636.15,64.6406 1636.15,64.6406 C1636.15,64.6406 1636.15,192.6006 1636.15,276.9906" fill="none" id="DatabaseBenchmark-to-DenormBenchmark" style="stroke:#181818;stroke-width:1.5;stroke-dasharray:7,7;"/><polygon fill="#181818" points="1636.15,281.9906,1640.15,272.9906,1636.15,276.9906,1632.15,272.9906,1636.15,281.9906" style="stroke:#181818;stroke-width:1.5;stroke-linejoin:miter;stroke-miterlimit:10;"/><text fill="#000000" font-family="sans-serif" font-size="13" lengthAdjust="spacing" textLength="28.5645" x="1376.54" y="51.209">uses</text></g><!--link InsertBenchmark to Db--><g class="link" data-entity-1="ent0004" data-entity-2="ent0003" data-link-type="dependency" data-source-line="48" id="lnk12"><path codeLine="48" d="M979.36,417.9706 C979.36,452.5306 979.36,490.2806 979.36,528.9206" fill="none" id="InsertBenchmark-to-Db" style="stroke:#181818;stroke-width:1.5;stroke-dasharray:7,7;"/><polygon fill="#181818" points="979.36,533.9206,983.36,524.9206,979.36,528.9206,975.36,524.9206,979.36,533.9206" style="stroke:#181818;stroke-width:1.5;stroke-linejoin:miter;stroke-miterlimit:10;"/><text fill="#000000" font-family="sans-serif" font-size="13" lengthAdjust="spacing" textLength="28.5645" x="940.36" y="462.509">uses</text></g><!--link SelectBenchmark to Db--><g class="link" data-entity-1="ent0005" data-entity-2="ent0003" data-link-type="dependency" data-source-line="49" id="lnk13"><path codeLine="49" d="M1126.64,349.6406 C1098,349.6406 1076.53,349.6406 1076.53,349.6406 C1076.53,349.6406 1076.53,446.1106 1076.53,528.7606" fill="none" id="SelectBenchmark-to-Db" style="stroke:#181818;stroke-width:1.5;stroke-dasharray:7,7;"/><polygon fill="#181818" points="1076.53,533.7606,1080.53,524.7606,1076.53,528.7606,1072.53,524.7606,1076.53,533.7606" style="stroke:#181818;stroke-width:1.5;stroke-linejoin:miter;stroke-miterlimit:10;"/><text fill="#000000" font-family="sans-serif" font-size="13" lengthAdjust="spacing" textLength="28.5645" x="1087.53" y="403.209">uses</text></g><!--link DenormBenchmark to Db--><g class="link" data-entity-1="ent0006" data-entity-2="ent0003" data-link-type="dependency" data-source-line="50" id="lnk14"><path codeLine="50" d="M1492.68,408.6406 C1331.28,408.6406 1091.42,408.6406 1091.42,408.6406 C1091.42,408.6406 1091.42,468.2506 1091.42,528.9506" fill="none" id="DenormBenchmark-to-Db" style="stroke:#181818;stroke-width:1.5;stroke-dasharray:7,7;"/><polygon fill="#181818" points="1091.42,533.9506,1095.42,524.9506,1091.42,528.9506,1087.42,524.9506,1091.42,533.9506" style="stroke:#181818;stroke-width:1.5;stroke-linejoin:miter;stroke-miterlimit:10;"/><text fill="#000000" font-family="sans-serif" font-size="13" lengthAdjust="spacing" textLength="28.5645" x="1190.39" y="432.209">uses</text></g><?plantuml-src bL9DJyCm3BttL_XOFZR10GdjWBIn2IODyT5n0I6KfLONBNKg9nq2jFzEjexITfIF7jhu-UNPpxLTACe4YnIq8dIl6O9XDpU1BHDaOhIOmUbH1MH1Ynqm4t6iA87ZAjXdDY_JkP8BGclXk7iI158BVnmA9sR2uW19pbF12tWFm3y7xzO9f-GAKg4eZ1nxqSSd49pOFUZ1qgXuG-oKHCwfL0dBqvNl75B_EeHpkvoO9446RP9IP1K4I7aAzHj55vVHxMGuUBw-cOwl-fCgDBgzxq_63wFX1hovZgONToEVgd4hy1T_LLgVVNejt47CQebSWtBMHPoWEpSKhhlsNqBfbA4Y9RMn65Rz5FfZiiYkVR1-Nf6leJ7qdSIpGr3aGERMcHJP5c769iwbizyCJnjATXK7midvdmJNqMpDZjGRjkcNPYBKtlEFPlfQVnR-HMo8P3Xj5yjCbclXjeEfhTk_A-uk-7wdKr-sxqZTxjbwGNeW6NqdjeNI_CSzo6qhkJd37ydD6Mt9GRDYsUWctInHppOrwzaF?></g></svg>